<svg version="1.1" id="Layer_1" xmlns="http://www.w3.org/2000/svg" xmlns:xlink="http://www.w3.org/1999/xlink" x="0px" y="0px"
	 viewBox="100 220 400 150" style="enable-background:new 0 0 400 150;" xml:space="preserve">
	<style type="text/css">
		.st0{fill:#FF5A00;}
	</style>
	<g>
		<path class="st0" d="M140.9,299.1c1.8,2.9,2.7,6.6,2.7,11.2c0,5.8-1.3,10.2-4,13.2c-2.7,3-6,4.5-10,4.5c-4,0-7.3-1.5-10-4.5
			c-2.7-3-4.1-7.4-4.1-13.1c0-5.7,1.4-10.1,4.1-13.1c2.7-3,6-4.5,10-4.5c3.5,0,6.5,1.2,9,3.6c2.9-3.5,5.9-7,9-10.3
			c-5-3.7-11-5.6-18.1-5.6c-5.6,0-10.7,1.2-15.3,3.7c-4.6,2.5-8.1,6.1-10.6,10.8c-2.5,4.7-3.7,9.6-3.7,14.6c0,6.6,1.2,12.2,3.7,16.8
			c2.5,4.6,6.1,8.1,10.9,10.5c4.8,2.4,9.8,3.6,15.1,3.6c8.5,0,15.6-2.9,21.2-8.6c5.6-5.7,8.4-12.9,8.4-21.6c0-8.6-2.8-15.7-8.3-21.4
			c0,0,0,0-0.1-0.1C147.5,292.1,144.1,295.5,140.9,299.1z"/>
		<path class="st0" d="M223.4,339.1h-15.2v-29.3c0-6.2-0.3-10.2-1-12c-0.6-1.8-1.7-3.2-3.2-4.2c-1.5-1-3.2-1.5-5.3-1.5
			c-2.6,0-5,0.7-7.1,2.2c-2.1,1.4-3.5,3.4-4.3,5.7c-0.8,2.4-1.2,6.8-1.2,13.2v26h-15.2v-57.4h14.1v8.4c5-6.5,11.3-9.7,18.9-9.7
			c3.4,0,6.4,0.6,9.2,1.8c2.8,1.2,4.9,2.7,6.3,4.6c1.4,1.9,2.4,4,3,6.4c0.6,2.4,0.8,5.8,0.8,10.2V339.1z"/>
		<path d="M253.5,332c2.8,3.1,5.6,5.2,8.1,6.5c2.6,1.3,5.4,1.9,8.6,1.9c6.7,0,12.3-2.7,17-8c4.7-5.3,7-12.8,7-22.3
			c0-9.3-2.3-16.6-7-21.8c-4.6-5.2-10.3-7.8-17-7.8c-3.8,0-7.3,0.9-10.4,2.7c-3.1,1.8-5.6,4.1-7.5,7v-8.4h-14.2v96.5h15.2V332z
			 M257.1,296.7c2.5-2.9,5.5-4.3,9.2-4.3c3.6,0,6.6,1.5,9,4.4c2.4,2.9,3.6,7.4,3.6,13.4c0,6.5-1.2,11.1-3.5,13.9
			c-2.3,2.8-5.3,4.2-8.8,4.2c-3.7,0-6.8-1.5-9.4-4.6c-2.6-3.1-3.8-7.8-3.8-14.3C253.4,303.8,254.6,299.5,257.1,296.7z"/>
		<path d="M302.9,309.6c0-5,1.2-9.9,3.7-14.6c2.5-4.7,6-8.3,10.6-10.8c4.6-2.5,9.6-3.7,15.3-3.7c8.7,0,15.8,2.8,21.3,8.5
			c5.5,5.6,8.3,12.8,8.3,21.4c0,8.7-2.8,15.9-8.4,21.6c-5.6,5.7-12.7,8.6-21.2,8.6c-5.3,0-10.3-1.2-15.1-3.6
			c-4.8-2.4-8.4-5.9-10.9-10.5C304.1,321.7,302.9,316.2,302.9,309.6z M318.5,310.4c0,5.7,1.4,10.1,4.1,13.1c2.7,3,6,4.5,10,4.5
			c4,0,7.3-1.5,10-4.5c2.7-3,4-7.4,4-13.2c0-5.6-1.3-9.9-4-13c-2.7-3-6-4.5-10-4.5c-4,0-7.3,1.5-10,4.5
			C319.8,300.3,318.5,304.7,318.5,310.4z"/>
		<rect x="374" y="281.7" width="15.2" height="57.4"/>
		<path d="M457,339.1h-15.2v-29.3c0-6.2-0.3-10.2-1-12c-0.6-1.8-1.7-3.2-3.2-4.2c-1.5-1-3.2-1.5-5.3-1.5c-2.6,0-5,0.7-7.1,2.2
			c-2.1,1.4-3.5,3.4-4.3,5.7c-0.8,2.4-1.2,6.8-1.2,13.2v26h-15.2v-57.4h14.1v8.4c5-6.5,11.3-9.7,18.9-9.7c3.4,0,6.4,0.6,9.2,1.8
			c2.8,1.2,4.9,2.7,6.3,4.6c1.4,1.9,2.4,4,3,6.4c0.6,2.4,0.8,5.8,0.8,10.2V339.1z"/>
		<path d="M498.7,281.7v12.1h-10.4v23.1c0,4.7,0.1,7.4,0.3,8.2c0.2,0.8,0.6,1.4,1.4,1.9c0.7,0.5,1.6,0.8,2.6,0.8
			c1.4,0,3.4-0.5,6.1-1.5l1.3,11.8c-3.5,1.5-7.5,2.3-12,2.3c-2.7,0-5.2-0.5-7.4-1.4c-2.2-0.9-3.8-2.1-4.8-3.6c-1-1.5-1.7-3.4-2.1-5.9
			c-0.3-1.8-0.5-5.3-0.5-10.7v-25h-7v-12.1h7v-11.4l15.2-8.9v20.3H498.7z"/>
		<path d="M378,254.7c-0.7-0.5-1.4-0.9-2.2-1.4c-1.7-1.1-3.6-2.4-5.7-3.6c-2.1-1.3-4.3-2.7-6.9-4.1c-2.5-1.4-5.1-2.9-8-4.3
			c-1.4-0.7-2.9-1.5-4.4-2.2c-1.5-0.7-3.1-1.4-4.7-2.2c-6.4-2.9-13.5-5.7-21.2-8.1c-7.7-2.4-16-4.3-24.7-5.5
			c-17.4-2.5-36.5-1.7-54.5,2.7c-4.5,1-9,2.4-13.4,3.9c-4.4,1.5-8.7,3.1-12.8,5c-8.3,3.6-16.2,7.9-23.5,12.4
			c-7.3,4.6-14.1,9.4-20.2,14.3c-6.1,4.9-11.7,9.8-16.6,14.6c-3.9,3.8-7.4,7.4-10.5,10.8c-3.5,3.8-6.6,7.4-9.1,10.5
			c-0.9,1.1-1.7,2.1-2.5,3.1c-4.9,6.2-7.4,10-7.4,10s2.7-3.7,7.9-9.6c0.8-0.9,1.7-1.8,2.6-2.8c2.7-3,6-6.4,9.8-10.1
			c3.3-3.2,6.9-6.6,11-10.1c5.1-4.4,10.8-9,17.1-13.5c6.3-4.5,13.2-8.9,20.5-12.9c7.4-4,15.2-7.7,23.4-10.8c4.1-1.6,8.3-2.9,12.5-4.1
			c4.3-1.1,8.5-2.2,12.9-3c17.3-3.3,35.1-3,51.2,0.2c8,1.6,15.6,3.8,22.7,6.4c7,2.6,13.5,5.6,19.3,8.6c1.4,0.8,2.9,1.5,4.2,2.3
			c1.4,0.7,2.7,1.6,4,2.3c2.6,1.5,5,3,7.2,4.4c2.3,1.4,4.3,2.9,6.2,4.2c1.9,1.3,3.6,2.6,5.2,3.7c0.6,0.4,1.2,0.9,1.7,1.3
			c0,0,0,0,0-0.1C369,261.1,372.8,256.3,378,254.7z"/>
		<path class="st0" d="M382.9,258.2c-0.4-0.1-0.9-0.1-1.3-0.1c-4.8,0-8.7,3.9-8.7,8.7c0,1.3,0.3,2.6,0.9,3.7c1.4,2.9,4.4,5,7.8,5
			c4.8,0,8.7-3.9,8.7-8.7C390.3,262.4,387.1,258.8,382.9,258.2z"/>
	</g>
</svg>
